<svg xmlns="http://www.w3.org/2000/svg" width="32" height="32" fill="none">
  <path fill="#A4A4A4" d="M2.016 23.969V8.079c0-1.032.78-1.329 1.265-1.532.485-.203 11.666-4.266 12.016-4.39.35-.126 1.052-.053 1.36 0C20.504 3.546 28.362 6.4 29 6.686c.637.288.901 1.047.953 1.391v15.766c0 .725-.547 1.36-.844 1.468l-12.593 4.641c-.263.088-.745.11-1.047 0a11639.15 11639.15 0 0 0-12.156-4.437c-1-.36-1.339-1.203-1.297-1.547Z"/>
  <path fill="url(#a)" d="M16.656 2.156C20.506 3.546 28.625 6.531 29 6.687c.375.157.531.423.672.61L16 12.14 2.266 7.203c.271-.324.726-.535 1.015-.656.485-.203 11.666-4.266 12.016-4.39.35-.126 1.052-.053 1.36 0Z"/>
  <path fill="url(#b)" d="M16.656 2.156C20.506 3.546 28.625 6.531 29 6.687c.375.157.531.423.672.61L16 12.14 2.266 7.203c.271-.324.726-.535 1.015-.656.485-.203 11.666-4.266 12.016-4.39.35-.126 1.052-.053 1.36 0Z"/>
  <path fill="url(#c)" d="M16.656 2.156C20.506 3.546 28.625 6.531 29 6.687c.375.157.531.423.672.61L16 12.14 2.266 7.203c.271-.324.726-.535 1.015-.656.485-.203 11.666-4.266 12.016-4.39.35-.126 1.052-.053 1.36 0Z"/>
  <path fill="url(#d)" d="M16.656 2.156C20.506 3.546 28.625 6.531 29 6.687c.375.157.531.423.672.61L16 12.14 2.266 7.203c.271-.324.726-.535 1.015-.656.485-.203 11.666-4.266 12.016-4.39.35-.126 1.052-.053 1.36 0Z"/>
  <path fill="url(#e)" d="M16.656 2.156C20.506 3.546 28.625 6.531 29 6.687c.375.157.531.423.672.61L16 12.14 2.266 7.203c.271-.324.726-.535 1.015-.656.485-.203 11.666-4.266 12.016-4.39.35-.126 1.052-.053 1.36 0Z"/>
  <path fill="url(#f)" d="M16.656 2.156C20.506 3.546 28.625 6.531 29 6.687c.375.157.531.423.672.61L16 12.14 2.266 7.203c.271-.324.726-.535 1.015-.656.485-.203 11.666-4.266 12.016-4.39.35-.126 1.052-.053 1.36 0Z"/>
  <path fill="url(#g)" d="m29.11 25.313-12.594 4.64c-.126.042-.303.07-.486.074l.001-18.02 13.6-4.752c.195.3.322.604.322.823v15.766c0 .725-.547 1.36-.844 1.468Z"/>
  <path fill="url(#h)" d="m29.11 25.313-12.594 4.64c-.126.042-.303.07-.486.074l.001-18.02 13.6-4.752c.195.3.322.604.322.823v15.766c0 .725-.547 1.36-.844 1.468Z"/>
  <path fill="url(#i)" d="m29.11 25.313-12.594 4.64c-.126.042-.303.07-.486.074l.001-18.02 13.6-4.752c.195.3.322.604.322.823v15.766c0 .725-.547 1.36-.844 1.468Z"/>
  <path fill="url(#j)" d="m29.11 25.313-12.594 4.64c-.126.042-.303.07-.486.074l.001-18.02 13.6-4.752c.195.3.322.604.322.823v15.766c0 .725-.547 1.36-.844 1.468Z"/>
  <path fill="url(#k)" d="M2.016 23.969V8.079c0-.415.125-.71.307-.93 0 0 10.426 3.942 13.707 4.843v18.035a1.596 1.596 0 0 1-.561-.074 11639.15 11639.15 0 0 0-12.156-4.437c-1-.36-1.339-1.203-1.297-1.547Z"/>
  <path fill="url(#l)" d="M2.016 23.969V8.079c0-.415.125-.71.307-.93 0 0 10.426 3.942 13.707 4.843v18.035a1.596 1.596 0 0 1-.561-.074 11639.15 11639.15 0 0 0-12.156-4.437c-1-.36-1.339-1.203-1.297-1.547Z"/>
  <path fill="url(#m)" d="M2.016 23.969V8.079c0-.415.125-.71.307-.93 0 0 10.426 3.942 13.707 4.843v18.035a1.596 1.596 0 0 1-.561-.074 11639.15 11639.15 0 0 0-12.156-4.437c-1-.36-1.339-1.203-1.297-1.547Z"/>
  <path fill="url(#n)" d="M2.016 23.969V8.079c0-.415.125-.71.307-.93 0 0 10.426 3.942 13.707 4.843v18.035a1.596 1.596 0 0 1-.561-.074 11639.15 11639.15 0 0 0-12.156-4.437c-1-.36-1.339-1.203-1.297-1.547Z"/>
  <g filter="url(#o)">
    <path fill="#C1C1C1" d="M20.151 14.381c.735.81 1.46 2.172 1.633 3.214.35 2.088-2.658 3.077-3.019 1.344-.283-1.36.449-3.357 1.05-4.508.088-.167.254-.162.336-.05Z"/>
    <path fill="#969696" d="M20.151 14.381c.735.81 1.46 2.172 1.633 3.214.35 2.088-2.658 3.077-3.019 1.344-.283-1.36.449-3.357 1.05-4.508.088-.167.254-.162.336-.05Z"/>
  </g>
  <path fill="#C1C1C1" d="M20.653 13.481c.831.81 1.65 2.173 1.847 3.214.395 2.088-3.006 3.077-3.414 1.344-.32-1.36.507-3.357 1.187-4.508.1-.167.287-.161.38-.05Z"/>
  <path fill="url(#p)" d="M20.653 13.481c.831.81 1.65 2.173 1.847 3.214.395 2.088-3.006 3.077-3.414 1.344-.32-1.36.507-3.357 1.187-4.508.1-.167.287-.161.38-.05Z"/>
  <path fill="url(#q)" d="M20.653 13.481c.831.81 1.65 2.173 1.847 3.214.395 2.088-3.006 3.077-3.414 1.344-.32-1.36.507-3.357 1.187-4.508.1-.167.287-.161.38-.05Z"/>
  <path fill="url(#r)" d="M20.653 13.481c.831.81 1.65 2.173 1.847 3.214.395 2.088-3.006 3.077-3.414 1.344-.32-1.36.507-3.357 1.187-4.508.1-.167.287-.161.38-.05Z"/>
  <g filter="url(#s)">
    <path fill="#959595" d="M26.255 20.42c1.328-.118 1.63 1.796.453 2.117-.546.149-1.225-.123-1.29-.64-.074-.596.389-1.438.837-1.477Z"/>
  </g>
  <path fill="url(#t)" d="M26.523 19.79c1.329-.118 1.631 1.795.454 2.116-.546.15-1.225-.123-1.29-.64-.074-.596.388-1.437.836-1.477Z"/>
  <path fill="url(#u)" d="M26.523 19.79c1.329-.118 1.631 1.795.454 2.116-.546.15-1.225-.123-1.29-.64-.074-.596.388-1.437.836-1.477Z"/>
  <g filter="url(#v)">
    <path fill="#767676" d="M12.172 18.75c.025-.737.61-1.187.922-1.187 1.36.156 1.099 1.942.672 2.11-.36.14-1.625 0-1.594-.923Z"/>
  </g>
  <path fill="url(#w)" d="M11.797 18.86c.025-.738.61-1.188.922-1.188 1.36.156 1.099 1.942.672 2.11-.36.14-1.625 0-1.594-.923Z"/>
  <path fill="url(#x)" d="M11.797 18.86c.025-.738.61-1.188.922-1.188 1.36.156 1.099 1.942.672 2.11-.36.14-1.625 0-1.594-.923Z"/>
  <g filter="url(#y)">
    <path fill="#767676" d="M7.818 23.337c-.213-1.013.562-1.625.937-1.625 1.484 0 1.462 2.176 1 2.437-.462.262-1.725.2-1.937-.812Z"/>
  </g>
  <path fill="url(#z)" d="M7.375 23.547c-.213-1.013.563-1.625.938-1.625 1.484 0 1.462 2.176 1 2.437-.463.262-1.726.2-1.938-.812Z"/>
  <path fill="url(#A)" d="M7.375 23.547c-.213-1.013.563-1.625.938-1.625 1.484 0 1.462 2.176 1 2.437-.463.262-1.726.2-1.938-.812Z"/>
  <g filter="url(#B)">
    <path fill="#838383" d="M4.543 16c-.113-1.313.764-3.234 1.473-4.031.203-.164.338-.163.53.047.516.562 1.919 3.093 1.919 4.656 0 1.188-1.016 1.36-1.531 1.36-.86 0-2.279-.72-2.391-2.032Z"/>
  </g>
  <path fill="#9B9B9B" d="M3.86 16c-.113-1.313 1.275-3.234 1.984-4.031.203-.164.339-.163.531.047.516.562 1.406 3.093 1.406 4.656 0 1.188-1.015 1.36-1.531 1.36-.86 0-2.278-.72-2.39-2.032Z"/>
  <path fill="url(#C)" d="M3.86 16c-.113-1.313 1.275-3.234 1.984-4.031.203-.164.339-.163.531.047.516.562 1.406 3.093 1.406 4.656 0 1.188-1.015 1.36-1.531 1.36-.86 0-2.278-.72-2.39-2.032Z"/>
  <path fill="url(#D)" d="M3.86 16c-.113-1.313 1.275-3.234 1.984-4.031.203-.164.339-.163.531.047.516.562 1.406 3.093 1.406 4.656 0 1.188-1.015 1.36-1.531 1.36-.86 0-2.278-.72-2.39-2.032Z"/>
  <path fill="url(#E)" d="M3.86 16c-.113-1.313 1.275-3.234 1.984-4.031.203-.164.339-.163.531.047.516.562 1.406 3.093 1.406 4.656 0 1.188-1.015 1.36-1.531 1.36-.86 0-2.278-.72-2.39-2.032Z"/>
  <g filter="url(#F)">
    <path stroke="#C6C6C6" stroke-linecap="round" stroke-width=".25" d="M28.406 6.75 15.5 11.125"/>
  </g>
  <defs>
    <radialGradient id="d" cx="0" cy="0" r="1" gradientTransform="rotate(77.799 .786 16.071) scale(.59148 1.09962)" gradientUnits="userSpaceOnUse">
      <stop offset=".561" stop-color="#D2D2D2"/>
      <stop offset="1" stop-color="#D2D2D2" stop-opacity="0"/>
    </radialGradient>
    <radialGradient id="n" cx="0" cy="0" r="1" gradientTransform="matrix(-.9375 .5 -.51723 -.96983 16.375 11.938)" gradientUnits="userSpaceOnUse">
      <stop offset=".422" stop-color="#D6D6D6"/>
      <stop offset="1" stop-color="#D5D5D5" stop-opacity="0"/>
    </radialGradient>
    <radialGradient id="p" cx="0" cy="0" r="1" gradientTransform="rotate(77.773 -1.828 21.747) scale(2.9512 1.87783)" gradientUnits="userSpaceOnUse">
      <stop stop-color="#B1B1B1"/>
      <stop offset="1" stop-color="#B0B0B0" stop-opacity="0"/>
    </radialGradient>
    <radialGradient id="q" cx="0" cy="0" r="1" gradientTransform="matrix(0 4.34375 -.97288 0 21.047 13.672)" gradientUnits="userSpaceOnUse">
      <stop offset=".234" stop-color="#E7E7E7"/>
      <stop offset=".799" stop-color="#E7E7E7" stop-opacity="0"/>
    </radialGradient>
    <radialGradient id="r" cx="0" cy="0" r="1" gradientTransform="rotate(71.061 .679 22.51) scale(3.36993 1.23565)" gradientUnits="userSpaceOnUse">
      <stop stop-color="#E7E7E7"/>
      <stop offset="1" stop-color="#E6E6E6" stop-opacity="0"/>
    </radialGradient>
    <radialGradient id="t" cx="0" cy="0" r="1" gradientTransform="rotate(82.878 1.522 25.54) scale(1.08424 1.03065)" gradientUnits="userSpaceOnUse">
      <stop stop-color="#B8B8B8"/>
      <stop offset="1" stop-color="#BBBBBB"/>
    </radialGradient>
    <radialGradient id="u" cx="0" cy="0" r="1" gradientTransform="rotate(67.225 -1.822 30.63) scale(.444 .8617)" gradientUnits="userSpaceOnUse">
      <stop stop-color="#D6D6D6"/>
      <stop offset="1" stop-color="#CBCBCB" stop-opacity="0"/>
    </radialGradient>
    <radialGradient id="w" cx="0" cy="0" r="1" gradientTransform="rotate(107.942 -.186 14.02) scale(1.72449 1.97154)" gradientUnits="userSpaceOnUse">
      <stop stop-color="#9C9C9C"/>
      <stop offset=".462" stop-color="#959595"/>
      <stop offset=".801" stop-color="#9F9F9F"/>
    </radialGradient>
    <radialGradient id="x" cx="0" cy="0" r="1" gradientTransform="rotate(145.619 3.75 11.261) scale(.35972 .32324)" gradientUnits="userSpaceOnUse">
      <stop offset=".227" stop-color="#B7B7B7"/>
      <stop offset="1" stop-color="#B8B8B8" stop-opacity="0"/>
    </radialGradient>
    <radialGradient id="z" cx="0" cy="0" r="1" gradientTransform="rotate(107.533 -3.977 14.705) scale(2.04986 2.297)" gradientUnits="userSpaceOnUse">
      <stop stop-color="#9C9C9C"/>
      <stop offset=".462" stop-color="#959595"/>
      <stop offset=".801" stop-color="#9F9F9F"/>
    </radialGradient>
    <radialGradient id="A" cx="0" cy="0" r="1" gradientTransform="rotate(144.96 .883 12.833) scale(.42149 .38205)" gradientUnits="userSpaceOnUse">
      <stop offset=".227" stop-color="#B7B7B7"/>
      <stop offset="1" stop-color="#B8B8B8" stop-opacity="0"/>
    </radialGradient>
    <radialGradient id="C" cx="0" cy="0" r="1" gradientTransform="matrix(-.37041 4.8125 -3.05913 -.23546 6.188 14.063)" gradientUnits="userSpaceOnUse">
      <stop offset=".449" stop-color="#A1A1A1" stop-opacity="0"/>
      <stop offset=".846" stop-color="#A1A1A1"/>
    </radialGradient>
    <radialGradient id="D" cx="0" cy="0" r="1" gradientTransform="matrix(0 3.4375 -2.57211 0 5.817 13.75)" gradientUnits="userSpaceOnUse">
      <stop offset=".405" stop-color="#A5A5A5"/>
      <stop offset="1" stop-color="#A1A1A1" stop-opacity="0"/>
    </radialGradient>
    <radialGradient id="E" cx="0" cy="0" r="1" gradientTransform="rotate(85.4 -3.656 9.832) scale(2.72754 .62241)" gradientUnits="userSpaceOnUse">
      <stop stop-color="#C5C5C5"/>
      <stop offset="1" stop-color="#B5B5B5" stop-opacity="0"/>
    </radialGradient>
    <linearGradient id="a" x1="10.5" x2="15.969" y1="4.125" y2="8.5" gradientUnits="userSpaceOnUse">
      <stop stop-color="#BBBBBB"/>
      <stop offset="1" stop-color="#BFBFBF"/>
    </linearGradient>
    <linearGradient id="b" x1="20.844" x2="20.469" y1="10.5" y2="9.438" gradientUnits="userSpaceOnUse">
      <stop offset=".175" stop-color="#D5D5D5"/>
      <stop offset=".73" stop-color="#D5D5D5" stop-opacity="0"/>
    </linearGradient>
    <linearGradient id="c" x1="8.875" x2="9.313" y1="9.688" y2="8.438" gradientUnits="userSpaceOnUse">
      <stop offset=".175" stop-color="#A0A0A0"/>
      <stop offset=".73" stop-color="#ADADAD" stop-opacity="0"/>
    </linearGradient>
    <linearGradient id="e" x1="9.438" x2="9.719" y1="4.438" y2="5.188" gradientUnits="userSpaceOnUse">
      <stop stop-color="#AAAAAA"/>
      <stop offset="1" stop-color="#BABABA" stop-opacity="0"/>
    </linearGradient>
    <linearGradient id="f" x1="9.438" x2="9.719" y1="4.438" y2="5.188" gradientUnits="userSpaceOnUse">
      <stop stop-color="#A9A9A9"/>
      <stop offset=".317" stop-color="#B4B4B4" stop-opacity="0"/>
    </linearGradient>
    <linearGradient id="g" x1="18.375" x2="27.875" y1="12" y2="25.625" gradientUnits="userSpaceOnUse">
      <stop stop-color="#BABABA"/>
      <stop offset="1" stop-color="#A0A0A0"/>
    </linearGradient>
    <linearGradient id="h" x1="24.375" x2="23.875" y1="27.219" y2="25.875" gradientUnits="userSpaceOnUse">
      <stop stop-color="#929292"/>
      <stop offset="1" stop-color="#949494" stop-opacity="0"/>
    </linearGradient>
    <linearGradient id="i" x1="16.03" x2="18.625" y1="23.375" y2="23.375" gradientUnits="userSpaceOnUse">
      <stop stop-color="#969696"/>
      <stop offset="1" stop-color="#A3A3A3" stop-opacity="0"/>
    </linearGradient>
    <linearGradient id="j" x1="22.063" x2="22.5" y1="9.75" y2="11" gradientUnits="userSpaceOnUse">
      <stop offset=".134" stop-color="#D5D5D5"/>
      <stop offset=".802" stop-color="#D5D5D5" stop-opacity="0"/>
    </linearGradient>
    <linearGradient id="k" x1="3.188" x2="14.625" y1="8.75" y2="27.313" gradientUnits="userSpaceOnUse">
      <stop stop-color="#989898"/>
      <stop offset=".755" stop-color="#838383"/>
    </linearGradient>
    <linearGradient id="l" x1="13.375" x2="16.03" y1="24.125" y2="24.125" gradientUnits="userSpaceOnUse">
      <stop offset=".659" stop-color="#8E8E8E" stop-opacity="0"/>
      <stop offset="1" stop-color="#979797"/>
    </linearGradient>
    <linearGradient id="m" x1="9.021" x2="8.438" y1="9.063" y2="10.688" gradientUnits="userSpaceOnUse">
      <stop offset=".307" stop-color="#A0A0A0"/>
      <stop offset="1" stop-color="#9E9E9E" stop-opacity="0"/>
    </linearGradient>
    <filter id="o" width="5.11" height="7.527" x="17.702" y="13.301" color-interpolation-filters="sRGB" filterUnits="userSpaceOnUse">
      <feFlood flood-opacity="0" result="BackgroundImageFix"/>
      <feBlend in="SourceGraphic" in2="BackgroundImageFix" result="shape"/>
      <feGaussianBlur result="effect1_foregroundBlur_18_30340" stdDeviation=".5"/>
    </filter>
    <filter id="s" width="4.031" height="4.163" x="24.411" y="19.414" color-interpolation-filters="sRGB" filterUnits="userSpaceOnUse">
      <feFlood flood-opacity="0" result="BackgroundImageFix"/>
      <feBlend in="SourceGraphic" in2="BackgroundImageFix" result="shape"/>
      <feGaussianBlur result="effect1_foregroundBlur_18_30340" stdDeviation=".5"/>
    </filter>
    <filter id="v" width="3.938" height="4.156" x="11.171" y="16.563" color-interpolation-filters="sRGB" filterUnits="userSpaceOnUse">
      <feFlood flood-opacity="0" result="BackgroundImageFix"/>
      <feBlend in="SourceGraphic" in2="BackgroundImageFix" result="shape"/>
      <feGaussianBlur result="effect1_foregroundBlur_18_30340" stdDeviation=".5"/>
    </filter>
    <filter id="y" width="4.252" height="4.569" x="6.781" y="20.712" color-interpolation-filters="sRGB" filterUnits="userSpaceOnUse">
      <feFlood flood-opacity="0" result="BackgroundImageFix"/>
      <feBlend in="SourceGraphic" in2="BackgroundImageFix" result="shape"/>
      <feGaussianBlur result="effect1_foregroundBlur_18_30340" stdDeviation=".5"/>
    </filter>
    <filter id="B" width="5.932" height="8.18" x="3.533" y="10.851" color-interpolation-filters="sRGB" filterUnits="userSpaceOnUse">
      <feFlood flood-opacity="0" result="BackgroundImageFix"/>
      <feBlend in="SourceGraphic" in2="BackgroundImageFix" result="shape"/>
      <feGaussianBlur result="effect1_foregroundBlur_18_30340" stdDeviation=".5"/>
    </filter>
    <filter id="F" width="13.656" height="5.125" x="15.125" y="6.375" color-interpolation-filters="sRGB" filterUnits="userSpaceOnUse">
      <feFlood flood-opacity="0" result="BackgroundImageFix"/>
      <feBlend in="SourceGraphic" in2="BackgroundImageFix" result="shape"/>
      <feGaussianBlur result="effect1_foregroundBlur_18_30340" stdDeviation=".125"/>
    </filter>
  </defs>
</svg>
